<?xml version="1.0" encoding="UTF-8"?>
<svg width="353px" height="71px" viewBox="0 0 353 71" version="1.1" xmlns="http://www.w3.org/2000/svg" xmlns:xlink="http://www.w3.org/1999/xlink">
    <!-- Generator: Sketch 42 (36781) - http://www.bohemiancoding.com/sketch -->
    <title>icons</title>
    <desc>Created with Sketch.</desc>
    <defs></defs>
    <g id="Page-1" stroke="none" stroke-width="1" fill="none" fill-rule="evenodd">
        <g id="SuperNova" transform="translate(-184.000000, -310.000000)">
            <g id="Header" transform="translate(184.000000, 104.000000)">
                <g id="icons" transform="translate(0.000000, 206.000000)">
                    <g id="Webpack-2" transform="translate(290.635835, 0.000000)">
                        <polygon id="border" fill="#FFFFFF" points="31.1383362 0 62.2766725 17.613723 62.2766725 52.8411691 31.1383362 70.4666424 0 52.8411691 0 17.613723"></polygon>
                        <g id="Group" transform="translate(3.760101, 4.935133)">
                            <g>
                                <path d="M52.9586722,46.695754 L28.412263,60.584627 L28.412263,49.7743367 L43.7111739,41.3611108 L52.9586722,46.695754 L52.9586722,46.695754 Z M54.6389673,45.1799633 L54.6389673,16.1331833 L45.6617263,21.3150724 L45.6617263,39.0110477 L45.6617263,39.9980742 L54.6389673,45.1799633 L54.6389673,45.1799633 Z M1.70379576,46.695754 L26.250205,60.584627 L26.250205,49.7743367 L10.9512941,41.3611108 L1.70379576,46.695754 L1.70379576,46.695754 Z M0.0235006311,45.1799633 L0.0235006311,16.1331833 L9.00074172,21.3150724 L9.00074172,39.0110477 L9.00074172,39.9980742 L0.0235006311,45.1799633 L0.0235006311,45.1799633 Z M1.06927872,14.2531328 L26.250205,0.0117503156 L26.250205,10.4695312 L10.1170217,19.3410194 L9.98776822,19.4115213 L1.06927872,14.2531328 L1.06927872,14.2531328 Z M53.5814389,14.2531328 L28.412263,0.0117503156 L28.412263,10.4695312 L44.533696,19.3410194 L44.6629494,19.4115213 L53.5814389,14.2531328 L53.5814389,14.2531328 Z" id="outer-cube" fill="#8ED6FB"></path>
                                <path d="M26.250205,47.3067704 L11.1627998,39.0110477 L11.1627998,22.5723562 L26.250205,31.27934 L26.250205,47.3067704 L26.250205,47.3067704 Z M28.412263,47.3067704 L43.4996682,39.0110477 L43.4996682,22.5723562 L28.412263,31.27934 L28.412263,47.3067704 L28.412263,47.3067704 Z M12.1733269,20.6688051 L27.331234,12.3378313 L42.4773907,20.6688051 L27.331234,29.4110398 L12.1733269,20.6688051 L12.1733269,20.6688051 Z" id="inner-cube" fill="#1C78C0"></path>
                            </g>
                        </g>
                    </g>
                    <path d="M216,34.5 L216,6 L244.5,6 L273,6 L273,34.5 L273,63 L244.5,63 L216,63 L216,34.5 L216,34.5 Z M261.934762,36.7709524 C263.382381,36.4090476 264.48619,35.7666667 265.499524,34.7171429 C266.024286,34.1561905 266.802381,33.1338095 266.865714,32.8895238 C266.88381,32.8171429 264.404762,31.152381 262.902857,30.2204762 C262.848571,30.1842857 262.631429,30.4195238 262.387143,30.7814286 C261.654286,31.8490476 260.885238,32.3104762 259.709048,32.3919048 C257.980952,32.5095238 256.868095,31.6047619 256.877143,30.0938095 C256.877143,29.6504762 256.940476,29.3880952 257.121429,29.0261905 C257.501429,28.2390476 258.207143,27.7685714 260.42381,26.8095238 C264.504286,25.0542857 266.250476,23.8961905 267.33619,22.2495238 C268.548571,20.4128571 268.82,17.4814286 267.996667,15.3009524 C267.091905,12.9304762 264.848095,11.32 261.690476,10.7861905 C260.713333,10.6142857 258.397143,10.6414286 257.347619,10.8314286 C255.058571,11.2385714 252.887143,12.3695238 251.548095,13.8533333 C251.023333,14.432381 250.000952,15.9433333 250.064286,16.0519048 C250.091429,16.0880952 250.326667,16.2328571 250.589048,16.3866667 C250.842381,16.5314286 251.801429,17.0833333 252.70619,17.6080952 L254.34381,18.5580952 L254.687619,18.0514286 C255.167143,17.3185714 256.216667,16.3142857 256.85,15.9795238 C258.668571,15.0204762 261.165714,15.1561905 262.39619,16.26 C262.920952,16.7395238 263.138095,17.2371429 263.138095,17.97 C263.138095,18.6304762 263.056667,18.92 262.712857,19.417619 C262.269524,20.0509524 261.364762,20.5847619 258.795238,21.697619 C255.854762,22.9642857 254.588095,23.7514286 253.43,25 C252.760476,25.7238095 252.127143,26.8819048 251.864762,27.85 C251.647619,28.6552381 251.593333,30.6728571 251.765238,31.4871429 C252.371429,34.3280952 254.515714,36.3095238 257.61,36.897619 C258.614286,37.087619 260.948571,37.0152381 261.934762,36.7709524 L261.934762,36.7709524 Z M248.553333,34.3914286 L248.571429,32.0571429 L244.861905,32.0571429 L241.152381,32.0571429 L241.152381,21.5166667 L241.152381,10.9761905 L238.528571,10.9761905 L235.904762,10.9761905 L235.904762,21.5166667 L235.904762,32.0571429 L232.195238,32.0571429 L228.485714,32.0571429 L228.485714,34.3461905 C228.485714,35.6128571 228.512857,36.6714286 228.549048,36.6985714 C228.57619,36.7347619 233.090952,36.7528571 238.564762,36.7438095 L248.52619,36.7166667 L248.553333,34.3914286 L248.553333,34.3914286 Z" id="TypeScript" fill="#007ACC" transform="translate(244.500000, 34.500000) scale(-1, 1) rotate(180.000000) translate(-244.500000, -34.500000) "></path>
                    <g id="Redux" transform="translate(142.674405, 10.487214)" fill="#764ABC">
                        <path d="M37.7035832,36.017927 C39.7061544,35.8117175 41.2253464,34.093305 41.1562922,32.0312099 C41.0872381,29.9691149 39.3608835,28.3194388 37.2892581,28.3194388 L37.1511497,28.3194388 C35.0104701,28.3881753 33.3531697,30.1753244 33.4222239,32.3061559 C33.4912781,33.3372035 33.9056032,34.230778 34.5270908,34.8494065 C32.1792486,39.4547521 28.5884312,42.8228407 23.202205,45.6410373 C19.5423334,47.5656594 15.7443534,48.2530244 11.9463734,47.7718689 C8.83893525,47.3594499 6.42203889,45.9847198 4.90284689,43.7164153 C2.69311308,40.3483267 2.48595054,36.7052921 4.35041344,33.0622575 C5.66244289,30.4502704 7.73406834,28.5256483 9.04609779,27.5633373 C8.76988106,26.6697628 8.35555597,25.1575597 8.14839343,24.0577757 C-1.8644629,31.2751084 -0.828650179,41.0356917 2.20973381,45.6410373 C4.4885218,49.0778624 9.11515197,51.208694 14.2251614,51.208694 C15.606245,51.208694 16.9873287,51.071221 18.3684123,50.7275385 C27.2073476,49.0091259 33.9056032,43.7851518 37.7035832,36.017927 L37.7035832,36.017927 Z" id="Shape"></path>
                        <path d="M49.8571191,27.4946008 C44.6090013,21.3770521 36.874933,18.0089635 28.0359977,18.0089635 L26.9311308,18.0089635 C26.3096432,16.7717065 24.9976137,15.9468685 23.5474759,15.9468685 L23.4093676,15.9468685 C21.2686879,16.015605 19.6113876,17.802754 19.6804418,19.9335856 C19.7494959,21.9956806 21.4758505,23.6453567 23.5474759,23.6453567 L23.6855843,23.6453567 C25.2047763,23.5766202 26.5168057,22.6143092 27.0692392,21.3083156 L28.3122145,21.3083156 C33.5603323,21.3083156 38.5322333,22.8205187 43.0207551,25.7761882 C46.4734642,28.0444928 48.9594148,31.0001624 50.3404984,34.5744605 C51.5144195,37.4613936 51.4453653,40.2795902 50.20239,42.6853677 C48.2688729,46.3284023 45.0233264,48.3217609 40.7419671,48.3217609 C37.9797999,48.3217609 35.355741,47.4969229 33.9746574,46.8782944 C33.2150614,47.5656594 31.8339777,48.6654434 30.8672192,49.3528084 C33.836549,50.7275385 36.874933,51.48364 39.7752086,51.48364 C46.40441,51.48364 51.3072569,47.8406054 53.1717198,44.1975708 C55.1742911,40.2108537 55.0361827,33.3372035 49.8571191,27.4946008 L49.8571191,27.4946008 Z" id="Shape"></path>
                        <path d="M14.7775949,37.1864476 C14.846649,39.2485426 16.5730036,40.8982187 18.644629,40.8982187 L18.7827374,40.8982187 C20.923417,40.8294822 22.5807174,39.0423331 22.5116632,36.9115016 C22.442609,34.8494065 20.7162545,33.1997305 18.644629,33.1997305 L18.5065207,33.1997305 C18.3684123,33.1997305 18.1612498,33.1997305 18.0231414,33.268467 C15.19192,28.5943848 14.0179989,23.5078837 14.432324,18.0089635 C14.7085407,13.8847734 16.0896243,10.3104753 18.5065207,7.35480571 C20.5090919,4.81155514 24.3761261,3.5742981 27.000185,3.5055616 C34.3199283,3.3680886 37.4273664,12.4413069 37.634529,16.0843415 C38.5322333,16.290551 40.0514253,16.7717065 41.0872381,17.115389 C40.2585879,5.98007567 33.3531697,0.206209506 26.7239683,0.206209506 C20.5090919,0.206209506 14.7775949,4.67408213 12.4988069,11.2727863 C9.32231452,20.0710586 11.39394,28.5256483 15.2609741,35.193089 C14.9157032,35.6742445 14.7085407,36.4303461 14.7775949,37.1864476 L14.7775949,37.1864476 Z" id="Shape"></path>
                    </g>
                    <g id="React" transform="translate(67.000000, 8.882309)" fill="#00D8FF">
                        <ellipse id="Oval" cx="30.7945792" cy="27.222064" rx="5.49621869" ry="5.47073759"></ellipse>
                        <path d="M49.7701938,20.1614185 C55.4659436,22.1131353 58.9402541,24.9987093 58.9402541,27.222064 C58.9402541,29.5903708 55.1880857,32.6649996 49.0956408,34.6742463 C44.2453682,36.2738147 37.7559776,37.1456616 30.7945792,37.1456616 C23.4814549,37.1456616 16.918866,36.2908033 12.1248644,34.6597476 C9.12359099,33.6386644 6.64505956,32.3116766 4.94620597,30.8635588 C3.41962298,29.5622861 2.64890417,28.2703289 2.64890417,27.222064 C2.64890417,24.9912307 5.99027748,22.1457371 11.5631885,20.2117584 C16.6938055,18.4314043 23.6047456,17.4075169 30.7945792,17.4075169 C37.8958907,17.4075169 44.6417221,18.404059 49.7701938,20.1614185 Z M10.6975835,17.7404307 C4.18110517,20.0018574 0.0195014038,23.5458545 0.0195014038,27.222064 C0.0195014038,31.0189266 4.48705791,34.8271111 11.2744231,37.1362859 C16.3762485,38.8720719 23.2147721,39.7628741 30.7945792,39.7628741 C38.018445,39.7628741 44.7808375,38.8543495 49.9226234,37.1586432 C56.9787389,34.8315845 61.5696569,31.0696615 61.5696569,27.222064 C61.5696569,23.532566 57.2738001,19.9646601 50.6260948,17.6867444 C45.2051966,15.8291799 38.1727998,14.7903043 30.7945792,14.7903043 C23.3254206,14.7903043 16.125029,15.8570753 10.6975835,17.7404307 Z" id="Shape" fill-rule="nonzero"></path>
                        <path d="M34.0818546,7.36026882 C38.6259028,3.42412792 42.8729053,1.86992223 44.8079034,2.98060787 C46.8690775,4.16370661 47.6705143,8.93513596 46.3755232,15.192015 C45.344523,20.1733158 42.8613837,26.204393 39.3837097,32.206893 C35.7302815,38.5127044 31.7078649,43.7441774 27.8933083,47.0630527 C25.5052959,49.1408336 23.1122197,50.6150211 21.0032132,51.3564099 C19.1080784,52.0226153 17.5986315,52.0417353 16.6862627,51.5180424 C14.7447889,50.4035568 13.9376255,46.1009827 15.0385802,40.3295559 C16.052104,35.0163753 18.6134837,28.5459976 22.2054461,22.3462899 C25.7530176,16.2232534 29.9903667,10.9044501 34.0818546,7.36026882 Z M12.4553308,39.8413389 C11.1679783,46.5899008 12.1732846,51.9486732 15.3726888,53.7852626 C18.6772563,55.6820594 24.223373,53.7324075 29.6238,49.0335608 C33.6832809,45.5015878 37.8748336,40.0501399 41.6614934,33.5143709 C45.270284,27.2855623 47.8578819,21.0007749 48.9508438,15.7201046 C50.4506776,8.47350777 49.4700862,2.63546456 46.1214407,0.713366747 C42.9104625,-1.12972932 37.6592281,0.791978615 32.3557112,5.38598569 C28.030924,9.1322586 23.6135757,14.6770003 19.927668,21.0388022 C16.1961565,27.4793709 13.5274921,34.2207639 12.4553308,39.8413389 Z" id="Shape" fill-rule="nonzero"></path>
                        <path d="M15.1010652,14.4952998 C13.9443585,8.61101794 14.7126149,4.1723731 16.6457662,3.05846913 C18.7049627,1.87186535 23.2582863,3.56367514 28.0574206,7.80520324 C31.8782906,11.181974 35.8875406,16.3352026 39.3753888,22.3320429 C43.0394039,28.6317279 45.5840884,34.7131663 46.5678617,39.6601576 C47.1837577,42.7571335 47.2717533,45.557032 46.8637835,47.7459791 C46.4971864,49.7129426 45.7599833,51.0241338 44.8485041,51.5493496 C42.9088178,52.6670535 38.7606785,51.2143473 34.2871068,47.3825762 C30.168756,43.8550773 25.8160833,38.4148373 22.2136538,32.221125 C18.6558525,26.1039595 16.1425485,19.7935894 15.1010652,14.4952998 Z M32.5720338,49.366395 C37.8030222,53.8469201 42.9694734,55.656246 46.1658671,53.8143906 C49.4672051,51.9120817 50.5400585,46.1557254 49.1472178,39.1519551 C48.1002778,33.8873248 45.4485965,27.5501793 41.6509699,21.0207707 C38.0316246,14.7978404 33.8537081,9.4278189 29.803222,5.84812034 C24.2449748,0.9356798 18.6737729,-1.13432771 15.3283992,0.793430483 C12.1204789,2.64187099 11.1705578,8.13009403 12.5205931,14.9978577 C13.6214605,20.5982496 16.2415294,27.1766834 19.9380742,33.5323999 C23.6804556,39.9667336 28.215428,45.6348231 32.5720338,49.366395 Z" id="Shape" fill-rule="nonzero"></path>
                    </g>
                    <g id="Electron" transform="translate(0.325595, 8.000000)" fill-rule="nonzero" fill="#47848F">
                        <path d="M18.7317296,12.4517719 C11.294911,11.101879 5.41491311,12.5147235 3.07142507,16.5599784 C1.3226618,19.5786383 1.8225316,23.5808783 4.28370914,27.859027 C4.49319168,28.2231606 4.95920539,28.3491068 5.32457987,28.1403357 C5.68995436,27.9315646 5.81632977,27.4671336 5.60684724,27.103 C3.38979035,23.2491947 2.95838346,19.7951073 4.39226957,17.3199784 C6.33901509,13.9595679 11.5838713,12.6993351 18.4584393,13.9471711 C18.8727897,14.0223818 19.2698651,13.7485957 19.3453321,13.3356525 C19.4207992,12.9227095 19.14608,12.5269826 18.7317296,12.4517719 L18.7317296,12.4517719 Z M8.15110228,33.0590873 C11.158137,36.3523727 15.0647772,39.4413088 19.5200806,42.0048436 C30.3078927,48.2120368 41.7922806,49.8711445 47.4522635,46.0249525 C47.8002367,45.7884903 47.889981,45.3156699 47.6527133,44.9688785 C47.4154453,44.6220871 46.9410133,44.5326473 46.5930401,44.7691095 C41.5274225,48.211406 30.6180854,46.6353738 20.2826705,40.6884848 C15.9605253,38.2015683 12.1776143,35.2104632 9.27914494,32.0360779 C8.995686,31.7256354 8.51337616,31.7029805 8.20187579,31.9854768 C7.89037542,32.2679731 7.86764334,32.7486448 8.15110228,33.0590873 L8.15110228,33.0590873 Z" id="Shape"></path>
                        <path d="M45.6467373,32.1345314 C50.5161863,26.4015746 52.2164293,20.6355095 49.8777669,16.5985843 C48.1569351,13.6281386 44.5190475,12.0598679 39.6843524,11.9972058 C39.2632213,11.9917476 38.9173872,12.3275576 38.9119102,12.7472585 C38.9064333,13.1669595 39.2433879,13.5116191 39.664519,13.5170773 C44.0127176,13.573434 47.1468325,14.9245315 48.5569223,17.3585843 C50.4994611,20.7117332 48.9832227,25.8537801 44.4826308,31.1524695 C44.2105177,31.4728369 44.2505205,31.952388 44.5719797,32.2235769 C44.8934388,32.4947658 45.3746242,32.4548988 45.6467373,32.1345314 L45.6467373,32.1345314 Z M33.1323105,12.7048425 C28.7295261,13.6449546 24.0431591,15.4830632 19.5424457,18.0727262 C8.40606679,24.4804813 1.14155424,33.9289457 2.15047365,40.7799386 C2.21163145,41.1952262 2.59901397,41.4824735 3.01571673,41.4215234 C3.43241948,41.3605733 3.72064561,40.9745062 3.65948782,40.5592187 C2.76367379,34.4762597 9.64971988,25.5200412 20.3050356,19.3890849 C24.6710853,16.8769059 29.20874,15.0971259 33.4518354,14.1911117 C33.8636559,14.103177 34.1259744,13.6991792 34.03774,13.2887573 C33.9495057,12.8783354 33.5441311,12.6169078 33.1323105,12.7048425 L33.1323105,12.7048425 Z" id="Shape"></path>
                        <path d="M15.0909518,45.5296882 C17.6369269,52.6148217 21.8021401,56.9770947 26.4857786,56.9770947 C29.9016438,56.9770947 33.0619889,54.6565123 35.5264075,50.5709548 C35.7434022,50.2112172 35.6266923,49.7442804 35.2657287,49.5280228 C34.9047651,49.3117651 34.4362372,49.4280786 34.2192425,49.7878162 C32.0044733,53.4595005 29.2839979,55.4570947 26.4857786,55.4570947 C22.5951973,55.4570947 18.8801947,51.5663321 16.5268326,45.0172168 C16.3848353,44.6220559 15.9482909,44.4164353 15.5517833,44.5579503 C15.1552758,44.6994654 14.9489545,45.1345274 15.0909518,45.5296882 L15.0909518,45.5296882 Z M38.3465692,44.1437572 C39.6645716,39.9462243 40.3724442,35.1039841 40.3724442,30.0580879 C40.3724442,17.4671386 35.950653,6.613267 29.652396,3.82614738 C29.2674697,3.65580894 28.8168682,3.82870691 28.6459493,4.2123258 C28.4750304,4.59594473 28.6485175,5.04501589 29.0334437,5.21535435 C34.6507276,7.70112807 38.8472643,18.0020828 38.8472643,30.0580879 C38.8472643,34.9534288 38.1617444,39.6427643 36.8909931,43.6898133 C36.7652128,44.0903945 36.9890896,44.5167484 37.3910358,44.6421013 C37.7929821,44.7674546 38.2207891,44.5443383 38.3465692,44.1437572 L38.3465692,44.1437572 Z" id="Shape"></path>
                        <path d="M52.7090758,43.3991814 C52.7090758,41.3902509 51.0749656,39.7616906 49.0591892,39.7616906 C47.0434124,39.7616906 45.4093023,41.3902509 45.4093023,43.3991814 C45.4093023,45.4081122 47.0434124,47.0366721 49.0591892,47.0366721 C51.0749656,47.0366721 52.7090758,45.4081122 52.7090758,43.3991814 L52.7090758,43.3991814 Z M51.1838959,43.3991814 C51.1838959,44.5686393 50.2326321,45.5166721 49.0591892,45.5166721 C47.8857459,45.5166721 46.9344821,44.5686393 46.9344821,43.3991814 C46.9344821,42.2297238 47.8857459,41.2816906 49.0591892,41.2816906 C50.2326321,41.2816906 51.1838959,42.2297238 51.1838959,43.3991814 L51.1838959,43.3991814 Z" id="Shape"></path>
                        <path d="M3.85987264,47.0366721 C5.87564936,47.0366721 7.50975924,45.4081122 7.50975924,43.3991814 C7.50975924,41.3902509 5.87564936,39.7616906 3.85987264,39.7616906 C1.84409591,39.7616906 0.209986014,41.3902509 0.209986014,43.3991814 C0.209986014,45.4081122 1.84409591,47.0366721 3.85987264,47.0366721 L3.85987264,47.0366721 Z M3.85987264,45.5166721 C2.68642949,45.5166721 1.73516587,44.5686393 1.73516587,43.3991814 C1.73516587,42.2297238 2.68642949,41.2816906 3.85987264,41.2816906 C5.03331578,41.2816906 5.98457938,42.2297238 5.98457938,43.3991814 C5.98457938,44.5686393 5.03331578,45.5166721 3.85987264,45.5166721 L3.85987264,45.5166721 Z" id="Shape"></path>
                        <path d="M26.4857786,7.53657162 C28.5015553,7.53657162 30.1356652,5.90801151 30.1356652,3.89908086 C30.1356652,1.89015016 28.5015553,0.26159007 26.4857786,0.26159007 C24.4700019,0.26159007 22.835892,1.89015016 22.835892,3.89908086 C22.835892,5.90801151 24.4700019,7.53657162 26.4857786,7.53657162 L26.4857786,7.53657162 Z M26.4857786,6.01657162 C25.3123354,6.01657162 24.3610718,5.06853869 24.3610718,3.89908086 C24.3610718,2.72962298 25.3123354,1.78159007 26.4857786,1.78159007 C27.6592217,1.78159007 28.6104853,2.72962298 28.6104853,3.89908086 C28.6104853,5.06853869 27.6592217,6.01657162 26.4857786,6.01657162 L26.4857786,6.01657162 Z" id="Shape"></path>
                        <path d="M27.0432715,32.6304777 C25.617668,32.9374584 24.2131623,32.0345387 23.9045328,30.6137769 C23.5971087,29.1930152 24.5025026,27.7932795 25.928106,27.485698 C27.3537095,27.1787174 28.7582152,28.081637 29.0668448,29.5023988 C29.3748716,30.9231606 28.468875,32.3228963 27.0432715,32.6304777 Z" id="Shape"></path>
                    </g>
                </g>
            </g>
        </g>
    </g>
</svg>