<?xml version="1.0" encoding="UTF-8"?>
<svg width="249px" height="191px" viewBox="0 0 249 191" version="1.1" xmlns="http://www.w3.org/2000/svg" xmlns:xlink="http://www.w3.org/1999/xlink">
    <!-- Generator: Sketch 42 (36781) - http://www.bohemiancoding.com/sketch -->
    <title>logo</title>
    <desc>Created with Sketch.</desc>
    <defs>
        <linearGradient x1="20.5813198%" y1="2.47148757%" x2="65.8450072%" y2="92.6300698%" id="linearGradient-1">
            <stop stop-color="#292E3A" offset="0%"></stop>
            <stop stop-color="#000000" offset="100%"></stop>
        </linearGradient>
        <linearGradient x1="36.9342672%" y1="-55.8719758%" x2="30.4440553%" y2="136.542339%" id="linearGradient-2">
            <stop stop-color="#29333D" offset="0%"></stop>
            <stop stop-color="#000000" offset="100%"></stop>
        </linearGradient>
    </defs>
    <g id="Page-1" stroke="none" stroke-width="1" fill="none" fill-rule="evenodd">
        <g id="SuperNova" transform="translate(-236.000000, -104.000000)">
            <g id="Header" transform="translate(184.000000, 104.000000)">
                <g id="logo" transform="translate(52.180633, 0.000000)">
                    <g id="BlackMonolith" transform="translate(92.731844, 0.000000)">
                        <polygon id="Rectangle" fill="url(#linearGradient-1)" points="53.7194241 0 62.1042831 116.875042 0 116.875042 8.38485898 0"></polygon>
                        <polygon id="Rectangle" fill="url(#linearGradient-2)" transform="translate(31.052142, 123.166732) scale(1, -1) translate(-31.052142, -123.166732) " points="53.7194241 118 62.1042831 128.333464 0 128.333464 8.38485898 118"></polygon>
                    </g>
                    <path d="M20.338882,154.510311 C19.6483609,153.631466 18.745989,152.933108 17.6317391,152.415217 C16.5174893,151.897327 15.4424897,151.638385 14.4067081,151.638385 C13.8731236,151.638385 13.3317005,151.685465 12.7824224,151.779627 C12.2331443,151.873789 11.7388014,152.054264 11.2993789,152.321056 C10.8599564,152.587848 10.4911609,152.933103 10.1929814,153.356832 C9.89480182,153.780561 9.74571429,154.321984 9.74571429,154.981118 C9.74571429,155.54609 9.86341497,156.016893 10.0988199,156.39354 C10.3342248,156.770188 10.6794801,157.09975 11.1345963,157.382236 C11.5897124,157.664722 12.1311356,157.923663 12.758882,158.159068 C13.3866284,158.394473 14.0928325,158.637721 14.8775155,158.88882 C16.0074591,159.265468 17.1844659,159.681343 18.4085714,160.13646 C19.6326769,160.591576 20.7469101,161.195773 21.7513043,161.949068 C22.7556986,162.702364 23.5874501,163.636123 24.2465839,164.750373 C24.9057176,165.864623 25.2352795,167.253491 25.2352795,168.917019 C25.2352795,170.831645 24.8821774,172.487302 24.1759627,173.884037 C23.469748,175.280773 22.5202958,176.43424 21.3275776,177.344472 C20.1348595,178.254704 18.7695315,178.929522 17.2315528,179.368944 C15.6935741,179.808367 14.1085382,180.028075 12.4763975,180.028075 C10.0909612,180.028075 7.78402771,179.612199 5.55552795,178.780435 C3.3270282,177.948671 1.47520406,176.763817 0,175.225839 L5.27304348,169.858634 C6.08911381,170.863028 7.16411341,171.702626 8.49807453,172.377453 C9.83203566,173.052281 11.1581301,173.389689 12.4763975,173.389689 C13.0727566,173.389689 13.6534133,173.326916 14.2183851,173.201366 C14.7833569,173.075817 15.2776997,172.871803 15.7014286,172.589317 C16.1251574,172.306831 16.462566,171.930189 16.7136646,171.459379 C16.9647632,170.988569 17.0903106,170.423606 17.0903106,169.764472 C17.0903106,169.136726 16.9333763,168.603149 16.6195031,168.163727 C16.3056299,167.724304 15.8583673,167.324122 15.2777019,166.963168 C14.6970364,166.602214 13.9751389,166.272652 13.1119876,165.974472 C12.2488363,165.676293 11.2679972,165.354577 10.169441,165.009317 C9.1022721,164.664056 8.05865934,164.256027 7.03857143,163.785217 C6.01848351,163.314408 5.10826487,162.710211 4.3078882,161.972609 C3.50751153,161.235007 2.86408111,160.340481 2.37757764,159.289006 C1.89107417,158.237531 1.64782609,156.958517 1.64782609,155.451925 C1.64782609,153.600074 2.02446828,152.015038 2.77776398,150.69677 C3.53105967,149.378503 4.51974543,148.295656 5.74385093,147.448199 C6.96795643,146.600741 8.34897782,145.980851 9.88695652,145.588509 C11.4249352,145.196168 12.9785843,145 14.5479503,145 C16.4311895,145 18.3536341,145.345255 20.3153416,146.035776 C22.2770491,146.726297 23.9954792,147.74637 25.4706832,149.096025 L20.338882,154.510311 Z M43.6386193,179.180621 L43.6386193,175.93205 L43.5444578,175.93205 C43.2619719,176.465634 42.8931764,176.967824 42.4380603,177.438634 C41.9829441,177.909443 41.4493677,178.317472 40.8373149,178.662733 C40.2252622,179.007993 39.5504449,179.290475 38.8128429,179.510186 C38.0752409,179.729898 37.2984163,179.839752 36.482346,179.839752 C34.91298,179.839752 33.5868856,179.55727 32.504023,178.992298 C31.4211605,178.427326 30.5423287,177.697582 29.8675013,176.803043 C29.1926739,175.908505 28.7061777,174.888432 28.4079982,173.742795 C28.1098186,172.597158 27.9607311,171.427998 27.9607311,170.23528 L27.9607311,155.73441 L35.7290541,155.73441 L35.7290541,168.446211 C35.7290541,169.105345 35.7761343,169.733082 35.8702963,170.329441 C35.9644583,170.9258 36.1449326,171.459377 36.4117249,171.930186 C36.6785171,172.400996 37.0316192,172.769792 37.4710416,173.036584 C37.9104641,173.303376 38.4911208,173.43677 39.2130292,173.43677 C40.562684,173.43677 41.5906033,172.934581 42.296818,171.930186 C43.0030328,170.925792 43.3561348,169.748785 43.3561348,168.39913 L43.3561348,155.73441 L51.077377,155.73441 L51.077377,179.180621 L43.6386193,179.180621 Z M81.2509032,167.363354 C81.2509032,168.995495 80.9998084,170.564837 80.4976112,172.071429 C79.9954141,173.57802 79.2656698,174.904114 78.3083566,176.049752 C77.3510433,177.195389 76.1818831,178.113454 74.800841,178.803975 C73.4197989,179.494496 71.8504565,179.839752 70.0927665,179.839752 C68.6489498,179.839752 67.2836218,179.549423 65.9967417,178.968758 C64.7098615,178.388092 63.7054823,177.595574 62.983574,176.59118 L62.8894125,176.59118 L62.8894125,190.48 L55.1681702,190.48 L55.1681702,155.73441 L62.5127665,155.73441 L62.5127665,158.606335 L62.6540087,158.606335 C63.3759171,157.664716 64.3724496,156.840811 65.6436361,156.134596 C66.9148226,155.428382 68.4135446,155.07528 70.1398473,155.07528 C71.8347626,155.07528 73.3727182,155.404841 74.7537603,156.063975 C76.1348024,156.723109 77.3039626,157.617634 78.2612758,158.747578 C79.2185891,159.877521 79.9561801,161.187922 80.4740709,162.67882 C80.9919616,164.169718 81.2509032,165.731213 81.2509032,167.363354 Z M73.7650646,167.363354 C73.7650646,166.610058 73.647364,165.872467 73.4119591,165.150559 C73.1765542,164.428651 72.8312988,163.793067 72.3761827,163.243789 C71.9210665,162.694511 71.3482565,162.247248 70.6577355,161.901988 C69.9672144,161.556727 69.1668497,161.384099 68.2566174,161.384099 C67.3777725,161.384099 66.5931012,161.556727 65.9025802,161.901988 C65.2120591,162.247248 64.6235557,162.702357 64.1370522,163.267329 C63.6505488,163.832301 63.2739066,164.475731 63.0071143,165.19764 C62.7403221,165.919548 62.606928,166.657139 62.606928,167.410435 C62.606928,168.16373 62.7403221,168.901321 63.0071143,169.62323 C63.2739066,170.345138 63.6505488,170.988569 64.1370522,171.55354 C64.6235557,172.118512 65.2120591,172.573621 65.9025802,172.918882 C66.5931012,173.264143 67.3777725,173.43677 68.2566174,173.43677 C69.1668497,173.43677 69.9672144,173.264143 70.6577355,172.918882 C71.3482565,172.573621 71.9210665,172.118512 72.3761827,171.55354 C72.8312988,170.988569 73.1765542,170.337291 73.4119591,169.599689 C73.647364,168.862087 73.7650646,168.11665 73.7650646,167.363354 Z M100.313373,164.773913 C100.313373,163.549808 99.9288845,162.498348 99.1598951,161.619503 C98.3909058,160.740658 97.237439,160.301242 95.6994603,160.301242 C94.9461646,160.301242 94.2556539,160.418943 93.6279075,160.654348 C93.0001611,160.889753 92.4508913,161.211468 91.9800814,161.619503 C91.5092716,162.027538 91.1326294,162.506188 90.8501436,163.055466 C90.5676577,163.604744 90.4107234,164.177554 90.3793361,164.773913 L100.313373,164.773913 Z M107.422566,167.74 L107.422566,168.681615 C107.422566,168.995488 107.406872,169.293663 107.375485,169.576149 L90.3793361,169.576149 C90.4421107,170.235283 90.6382786,170.831633 90.9678454,171.365217 C91.2974123,171.898802 91.7211348,172.361758 92.2390255,172.754099 C92.7569163,173.146441 93.3375731,173.452463 93.9810131,173.672174 C94.6244532,173.891885 95.2914237,174.001739 95.9819448,174.001739 C97.2060503,174.001739 98.2418163,173.774184 99.089274,173.319068 C99.9367316,172.863952 100.627242,172.275449 101.160827,171.55354 L106.528032,174.943354 C105.429476,176.544107 103.977834,177.776041 102.173063,178.639193 C100.368292,179.502344 98.2732197,179.933913 95.8877833,179.933913 C94.1300934,179.933913 92.4665903,179.659278 90.8972243,179.11 C89.3278583,178.560722 87.9546836,177.760357 86.7776591,176.708882 C85.6006346,175.657407 84.6747225,174.362699 83.9998951,172.82472 C83.3250677,171.286742 82.9876591,169.529078 82.9876591,167.551677 C82.9876591,165.63705 83.317221,163.902927 83.9763547,162.349255 C84.6354885,160.795582 85.5300137,159.477335 86.6599572,158.394472 C87.7899008,157.311609 89.1238419,156.472011 90.6618206,155.875652 C92.1997993,155.279293 93.8633023,154.981118 95.6523796,154.981118 C97.3786822,154.981118 98.9637181,155.271446 100.407535,155.852112 C101.851352,156.432777 103.091132,157.272375 104.126914,158.370932 C105.162695,159.469488 105.970907,160.803429 106.551572,162.372795 C107.132238,163.942161 107.422566,165.731211 107.422566,167.74 Z M125.49634,162.04323 C125.15108,161.949068 124.813671,161.886294 124.484104,161.854907 C124.154538,161.82352 123.832822,161.807826 123.518949,161.807826 C122.483168,161.807826 121.612183,161.996147 120.905968,162.372795 C120.199753,162.749443 119.63479,163.204552 119.211061,163.738137 C118.787332,164.271721 118.48131,164.852378 118.292986,165.480124 C118.104663,166.107871 118.010502,166.657141 118.010502,167.12795 L118.010502,179.180621 L110.28926,179.180621 L110.28926,155.73441 L117.728017,155.73441 L117.728017,159.124224 L117.822179,159.124224 C118.418538,157.931505 119.265983,156.958513 120.364539,156.205217 C121.463095,155.451922 122.734263,155.07528 124.17808,155.07528 C124.491953,155.07528 124.797975,155.090973 125.096154,155.12236 C125.394334,155.153748 125.637582,155.200828 125.825906,155.263602 L125.49634,162.04323 Z M148.607755,179.180621 L135.189742,157.382236 L135.0485,157.382236 L135.236823,179.180621 L127.421419,179.180621 L127.421419,145.847453 L136.602165,145.847453 L149.973096,167.598758 L150.114339,167.598758 L149.926016,145.847453 L157.741419,145.847453 L157.741419,179.180621 L148.607755,179.180621 Z M187.114573,167.363354 C187.114573,169.277981 186.769317,171.012104 186.078796,172.565776 C185.388275,174.119449 184.44667,175.437696 183.253952,176.520559 C182.061234,177.603422 180.680212,178.44302 179.110846,179.039379 C177.54148,179.635738 175.862284,179.933913 174.073206,179.933913 C172.315516,179.933913 170.644167,179.635738 169.059107,179.039379 C167.474047,178.44302 166.093026,177.603422 164.916001,176.520559 C163.738977,175.437696 162.805218,174.119449 162.114697,172.565776 C161.424176,171.012104 161.078921,169.277981 161.078921,167.363354 C161.078921,165.448727 161.424176,163.722451 162.114697,162.184472 C162.805218,160.646493 163.738977,159.343939 164.916001,158.27677 C166.093026,157.209601 167.474047,156.393543 169.059107,155.828571 C170.644167,155.2636 172.315516,154.981118 174.073206,154.981118 C175.862284,154.981118 177.54148,155.2636 179.110846,155.828571 C180.680212,156.393543 182.061234,157.209601 183.253952,158.27677 C184.44667,159.343939 185.388275,160.646493 186.078796,162.184472 C186.769317,163.722451 187.114573,165.448727 187.114573,167.363354 Z M179.675815,167.363354 C179.675815,166.610058 179.550268,165.872467 179.299169,165.150559 C179.048071,164.428651 178.687122,163.793067 178.216312,163.243789 C177.745502,162.694511 177.164845,162.247248 176.474324,161.901988 C175.783803,161.556727 174.983439,161.384099 174.073206,161.384099 C173.162974,161.384099 172.362609,161.556727 171.672088,161.901988 C170.981567,162.247248 170.408757,162.694511 169.953641,163.243789 C169.498525,163.793067 169.15327,164.428651 168.917865,165.150559 C168.68246,165.872467 168.564759,166.610058 168.564759,167.363354 C168.564759,168.11665 168.68246,168.854241 168.917865,169.576149 C169.15327,170.298057 169.506372,170.949335 169.977182,171.53 C170.447991,172.110665 171.028648,172.573621 171.719169,172.918882 C172.40969,173.264143 173.210055,173.43677 174.120287,173.43677 C175.030519,173.43677 175.830884,173.264143 176.521405,172.918882 C177.211926,172.573621 177.792583,172.110665 178.263393,171.53 C178.734203,170.949335 179.087305,170.298057 179.322709,169.576149 C179.558114,168.854241 179.675815,168.11665 179.675815,167.363354 Z M204.576298,179.180621 L196.243006,179.180621 L187.01518,155.73441 L195.536795,155.73441 L200.480273,170.941491 L200.621515,170.941491 L205.564993,155.73441 L213.804124,155.73441 L204.576298,179.180621 Z M228.676408,168.964099 L227.687712,168.964099 C226.840254,168.964099 225.984963,169.003333 225.121811,169.081801 C224.25866,169.16027 223.489682,169.309357 222.814855,169.529068 C222.140027,169.74878 221.582911,170.070495 221.143488,170.494224 C220.704066,170.917952 220.484358,171.475069 220.484358,172.16559 C220.484358,172.605013 220.586365,172.981655 220.790383,173.295528 C220.9944,173.609401 221.253342,173.860496 221.567215,174.04882 C221.881088,174.237144 222.242037,174.370538 222.650072,174.449006 C223.058107,174.527475 223.450443,174.566708 223.827091,174.566708 C225.396457,174.566708 226.597004,174.135139 227.428768,173.271988 C228.260532,172.408836 228.676408,171.239676 228.676408,169.764472 L228.676408,168.964099 Z M214.505103,158.935901 C215.886145,157.617633 217.494721,156.628947 219.33088,155.969814 C221.167038,155.31068 223.042402,154.981118 224.957029,154.981118 C226.93443,154.981118 228.60578,155.224366 229.971128,155.71087 C231.336477,156.197373 232.442863,156.950657 233.290321,157.970745 C234.137778,158.990833 234.757669,160.277694 235.15001,161.831366 C235.542352,163.385039 235.738519,165.229016 235.738519,167.363354 L235.738519,179.180621 L228.676408,179.180621 L228.676408,176.685342 L228.535165,176.685342 C227.938806,177.658349 227.036434,178.411633 225.828023,178.945217 C224.619611,179.478802 223.30921,179.74559 221.89678,179.74559 C220.955161,179.74559 219.982168,179.620043 218.977774,179.368944 C217.97338,179.117846 217.055315,178.709816 216.223551,178.144845 C215.391787,177.579873 214.709123,176.826589 214.175538,175.884969 C213.641954,174.943349 213.375165,173.782036 213.375165,172.400994 C213.375165,170.706078 213.838121,169.340751 214.764047,168.304969 C215.689973,167.269187 216.882674,166.468823 218.342184,165.903851 C219.801694,165.338879 221.425964,164.962237 223.215041,164.773913 C225.004118,164.585589 226.746089,164.491429 228.441004,164.491429 L228.441004,164.114783 C228.441004,162.953452 228.032975,162.09816 227.216905,161.548882 C226.400834,160.999604 225.396455,160.724969 224.203737,160.724969 C223.105181,160.724969 222.045874,160.96037 221.025787,161.43118 C220.005699,161.90199 219.134714,162.466953 218.412805,163.126087 L214.505103,158.935901 Z M248.350928,175.037516 C248.350928,176.355783 247.887972,177.454323 246.962046,178.333168 C246.03612,179.212013 244.929733,179.651429 243.642853,179.651429 C242.983719,179.651429 242.363829,179.533728 241.783164,179.298323 C241.202498,179.062918 240.692462,178.741203 240.253039,178.333168 C239.813617,177.925133 239.468362,177.446483 239.217263,176.897205 C238.966164,176.347927 238.840617,175.74373 238.840617,175.084596 C238.840617,174.45685 238.966164,173.8605 239.217263,173.295528 C239.468362,172.730556 239.813617,172.236213 240.253039,171.812484 C240.692462,171.388756 241.202498,171.051347 241.783164,170.800248 C242.363829,170.54915 242.983719,170.423602 243.642853,170.423602 C244.929733,170.423602 246.03612,170.863018 246.962046,171.741863 C247.887972,172.620708 248.350928,173.719248 248.350928,175.037516 Z" id="SuperNova." fill="#000000"></path>
                </g>
            </g>
        </g>
    </g>
</svg>